<?xml version="1.0" encoding="UTF-8"?>
<svg id="bangle" xmlns="http://www.w3.org/2000/svg" viewBox="0 0 266 266">
  <defs>
    <style>
      .cls-1 {
        fill: #dfeaef;
      }

      .cls-2 {
        fill: #b5519a;
      }
    </style>
  </defs>
  <g>
    <path class="cls-2" d="M31.62,76.51l-.47.41c.08-.07.17-.14.25-.21.08-.07.15-.14.23-.21Z"/>
    <path class="cls-1" d="M96.98,19.18c-14.45,12.99-17.4,32.44-12.61,53.74,43.34,17.74,91.07,72.91,102.6,118.15,20.16,7.26,39.77,6.52,55.22-6.6C292.19,138.78,152.65-28.35,96.98,19.18Z"/>
    <path class="cls-2" d="M176.26,242.33l.47-.41c-.07.07-.15.13-.23.19-.08.07-.16.15-.24.22Z"/>
  </g>
  <path class="cls-1" d="M235.97,189.95c-14.24,12.49-48.47,42.53-65.45,57.42C119.03,292.54-30.19,130.74,25.4,81.97L90.85,24.54c-58.79,51.58,87.61,215.86,145.12,165.4Z"/>
</svg>