<?xml version="1.0" encoding="UTF-8"?>
<svg id="leaf" xmlns="http://www.w3.org/2000/svg" viewBox="0 0 266 266">
  <defs>
    <style>
      .cls-1 {
        fill: #e1eef3;
      }
    </style>
  </defs>
  <path class="cls-1" d="M228.86,210.14c-3.07,1.59-22.13,27.58-56.13,5.81,21.99-18.06,53.35-27.67,25.03-80.59-22.15-35.91-95.83-39.69-170.42-95.45C-3.8,180.72,36.47,216.98,62.27,234.79c46.28,32.88,95.79,15.17,101.04-7.52,5.13,2.57,34.93,24.57,60.42,3.31,1.29-1.07,6.09-19.01,5.13-20.44ZM143.69,201.3c-2.98,7.96-20.06,24.57-57.36,20.56,26.44-.71,50.85-9.55,53.58-26.7-1.14-6.24-3.6-11.22-12.27-12.52-3.04,6.7-64.2,18.9-83.08-16.07,24.31,29.77,72.12,18.17,77.95,11.1-8.8-16.96-17.62-30.01-33.81-28.83,2.16-1.39-56.88,8.51-49.33-79.62,5.9,78.68,41.22,66.67,47.32,71.35-4.51-7.02-6.84-28.12-.12-49.85-.24,10.28-2.3,43.94,6.84,48.67,6.51-.5,17.94-9.92,23.37-26.94-.07,9.74-3.78,23.63-15.79,30.74,21.2,11.36,21.78,24.64,27.96,32.58,5.26,2,3.38.63,5.26,2,11.14-10.65,15.15-35.32,12.79-62.96,3.78,21.03,6.3,48.29-7.03,67.23,6.76,5.51,6.63,8.4,7.01,12.78,8.04,14.5,7.57,18.28,18.19,23.48-14.63,3.31-21.48-17.01-21.48-17.01Z"/>
</svg>