<?xml version="1.0" encoding="UTF-8"?>
<svg id="leaf" xmlns="http://www.w3.org/2000/svg" viewBox="0 0 266 266">
  <defs>
    <style>
      .cls-1 {
        fill: #e1eef3;
      }
    </style>
  </defs>
  <path class="cls-1" d="M241.92,13.12c-34.01,23.4-55.92,24.41-73.43,46.11-10.58,14.46-.58,32.86,13.11,36.74-11.57,4.09-18.69,3.86-21.11,4.78-.35.74,5.64,8.27,6.37,8.74,1.78-.49,17.24-8.09,19.54-9.57,3.57,4.75,18.81,25.58,50.62,1.02,11.19-9.85,20.05-41.26,4.9-87.81ZM210.82,80.96c-2.2,3.16-3.41,3.81-5.37,4.08-4.37,7.78-11.85,13.59-20.76,11.84,11.75-.54,18.06-12.32,18.06-12.32-3.72-1.51-17.32-13.13-15.37-28.17,1.25,10.47,10.59,25.47,18.4,26.3,2.75-.66,5.23-3.07,5.46-6.99-3.13-1.2-13.61-16.2-3.22-34.17-7.25,16.65.73,30.66,4.14,33.11,7.25-4.34,14.25-8.95,13.05-16.17.71.94,13.99-13.9,14.13-35.25,1.88,21.17-9.4,32.62-11.25,35.47,2.96-2.18,7.18-2.25,13.58-1.6-7.87.21-11.26.38-14.83,3.96.49,2.9,2.9,6.99,8.24,6.72-1.52.44-8.33.5-8.44-5.17-4.22,9.76-10.16,10.33-13.47,13.28-.68,2.4-.83,2.69-1.37,3.56,5.24,4.74,18.63,8,27.36,1.89-6.76,7.81-19.3,5.16-28.35-.37Z"/>
  <path class="cls-1" d="M228.86,210.14c-3.07,1.59-22.13,27.58-56.13,5.81,21.99-18.06,53.35-27.67,25.03-80.59-22.15-35.91-95.83-39.69-170.42-95.45C-3.8,180.72,36.47,216.98,62.27,234.79c46.28,32.88,95.79,15.17,101.04-7.52,5.13,2.57,34.93,24.57,60.42,3.31,1.29-1.07,6.09-19.01,5.13-20.44ZM143.69,201.3c-2.98,7.96-20.06,24.57-57.36,20.56,26.44-.71,50.85-9.55,53.58-26.7-1.14-6.24-3.6-11.22-12.27-12.52-3.04,6.7-64.2,18.9-83.08-16.07,24.31,29.77,72.12,18.17,77.95,11.1-8.8-16.96-17.62-30.01-33.81-28.83,2.16-1.39-56.88,8.51-49.33-79.62,5.9,78.68,41.22,66.67,47.32,71.35-4.51-7.02-6.84-28.12-.12-49.85-.24,10.28-2.3,43.94,6.84,48.67,6.51-.5,17.94-9.92,23.37-26.94-.07,9.74-3.78,23.63-15.79,30.74,21.2,11.36,21.78,24.64,27.96,32.58,5.26,2,3.38.63,5.26,2,11.14-10.65,15.15-35.32,12.79-62.96,3.78,21.03,6.3,48.29-7.03,67.23,6.76,5.51,6.63,8.4,7.01,12.78,8.04,14.5,7.57,18.28,18.19,23.48-14.63,3.31-21.48-17.01-21.48-17.01Z"/>
</svg>