<?xml version="1.0" encoding="UTF-8"?>
<svg id="light" xmlns="http://www.w3.org/2000/svg" viewBox="0 0 266 266">
  <defs>
    <style>
      .cls-1 {
        fill: #e0ecf1;
      }
    </style>
  </defs>
  <path class="cls-1" d="M207.15,206.68c-32.58-.23-47.4,10.34-47.13,47.13-.26-36.61-12.08-47.56-47.82-47.82,35.74.26,47.36-15.78,47.13-47.13.22,31.18,15.23,47.58,47.82,47.82Z"/>
  <path class="cls-1" d="M75.15,134.91c0,35.24-11.17,53.35-45.18,53.35,34.01,0,45.18,12.21,45.18,53.35,0-41.34,14.17-53.35,45.18-53.35-31.01,0-45.18-18.31-45.18-53.35ZM75.15,218.96c0-23.67-6.43-30.69-25.99-30.69,19.57,0,25.99-10.42,25.99-30.69,0,20.16,8.15,30.69,25.99,30.69-17.84,0-25.99,6.91-25.99,30.69Z"/>
  <path class="cls-1" d="M214.56,65.8c0,24.41-7.74,36.95-31.29,36.95,23.55,0,31.29,8.45,31.29,36.95,0-28.63,9.81-36.95,31.29-36.95-21.48,0-31.29-12.68-31.29-36.95ZM214.56,124.01c0-16.39-4.45-21.26-18-21.26,13.55,0,18-7.22,18-21.26,0,13.96,5.65,21.26,18,21.26-12.36,0-18,4.79-18,21.26Z"/>
  <path class="cls-1" d="M171.44,88.38c-51.92-.37-75.53,16.48-75.1,75.1-.42-58.34-19.25-75.78-76.19-76.19,56.95.41,75.46-25.14,75.1-75.1.36,49.69,24.27,75.82,76.19,76.19Z"/>
  <path class="cls-1" d="M179.72,35.46c-12.84-.09-18.68,4.08-18.57,18.57-.1-14.43-4.76-18.74-18.84-18.84,14.08.1,18.66-6.22,18.57-18.57.09,12.29,6,18.75,18.84,18.84Z"/>
  <path class="cls-1" d="M104,158.86c0,11.12-3.52,16.84-14.26,16.84,10.73,0,14.26,3.85,14.26,16.84,0-13.05,4.47-16.84,14.26-16.84-9.79,0-14.26-5.78-14.26-16.84ZM104,185.38c0-7.47-2.03-9.69-8.2-9.69,6.17,0,8.2-3.29,8.2-9.69,0,6.36,2.57,9.69,8.2,9.69-5.63,0-8.2,2.18-8.2,9.69Z"/>
  <path class="cls-1" d="M209.55,150.82c-16.29-.12-23.7,5.17-23.57,23.57-.13-18.31-6.04-23.78-23.91-23.91,17.87.13,23.68-7.89,23.57-23.57.11,15.59,7.62,23.79,23.91,23.91Z"/>
</svg>