<?xml version="1.0" encoding="UTF-8"?>
<svg id="skull" xmlns="http://www.w3.org/2000/svg" viewBox="0 0 266 266">
  <defs>
    <style>
      .cls-1 {
        fill: #dee8ed;
      }

      .cls-2 {
        fill: #dfeaef;
      }
    </style>
  </defs>
  <path class="cls-2" d="M133,18c-53.57,0-97,43.43-97,97,0,24.46,9.05,46.8,23.99,63.86.17.56.56,1.16,1.2,1.8,10.37,10.37,5.94,40.53,14.39,50.61,9.58,11.43,57.42,16.18,57.42,16.18,0,0,47.84-4.75,57.42-16.18,8.45-10.08,4.02-40.24,14.39-50.61.64-.64,1.03-1.24,1.2-1.8,14.93-17.06,23.99-39.4,23.99-63.86,0-53.57-43.43-97-97-97ZM144.97,168.95c-4.79,0-5.45-6.95-11.97-6.95s-7.19,6.95-11.97,6.95c-6.69,0,4.13-20.38,11.97-31.66,7.85,11.27,18.67,31.66,11.97,31.66ZM68.96,132.97c-12.31-12.31-9.49-25.94,0-31.32,17.15-7.95,36.41-10.27,49.52-1.46,6.5,4.37.23,20.83-5.31,26.37-5.24,5.24-37.78,12.84-44.22,6.41ZM180.88,216.04c-5.7,8.13-47.88,7.96-47.88,7.96,0,0-42.18.16-47.88-7.96-6.12-5.28-6-17.72-6-30.44,15.41,8,39.81,7.8,53.88,7.8s38.47.21,53.88-7.8c0,12.72.12,25.15-6,30.44ZM197.04,132.97c-6.44,6.44-38.98-1.17-44.22-6.41-5.54-5.54-11.8-22-5.31-26.37,13.11-8.82,32.37-6.49,49.52,1.46,9.49,5.38,12.31,19.01,0,31.32Z"/>
  <rect class="cls-1" x="134.33" y="186.54" width="13.87" height="20.48"/>
  <polygon class="cls-1" points="163.2 207.02 149.33 207.02 149.33 186.96 163.2 187.29 163.2 207.02"/>
  <polygon class="cls-1" points="175.18 207.02 164.45 207.02 164.45 187.29 175.18 187.7 175.18 207.02"/>
  <polygon class="cls-1" points="148.2 230.43 134.33 231.87 134.33 208.78 148.2 208.78 148.2 230.43"/>
  <polygon class="cls-1" points="163.2 227.99 149.33 229.97 149.33 208.78 163.2 208.78 163.2 227.99"/>
  <polygon class="cls-1" points="175.18 224.11 164.45 227.29 164.45 208.78 175.18 208.78 175.18 224.11"/>
  <rect class="cls-1" x="119.31" y="186.53" width="13.87" height="20.48"/>
  <polygon class="cls-1" points="104.31 207.01 118.18 207.01 118.18 186.94 104.31 187.27 104.31 207.01"/>
  <polygon class="cls-1" points="92.33 207.01 103.06 207.01 103.06 187.27 92.33 187.69 92.33 207.01"/>
  <polygon class="cls-1" points="119.31 230.42 133.18 231.86 133.18 208.77 119.31 208.77 119.31 230.42"/>
  <polygon class="cls-1" points="104.31 227.98 118.18 229.96 118.18 208.77 104.31 208.77 104.31 227.98"/>
  <polygon class="cls-1" points="92.33 224.1 103.06 227.28 103.06 208.77 92.33 208.77 92.33 224.1"/>
</svg>