<?xml version="1.0" encoding="UTF-8"?>
<svg id="_レイヤー_6" data-name="レイヤー 6" xmlns="http://www.w3.org/2000/svg" viewBox="0 0 256 257">
  <defs>
    <style>
      .cls-1 {
        fill: none;
        stroke: #e2f0f5;
        stroke-miterlimit: 10;
      }

      .cls-2 {
        fill: #e2f0f5;
      }
    </style>
  </defs>
  <rect class="cls-1" x="124.32" y="28.78" width="7.36" height="29.89" rx="2.17" ry="2.17"/>
  <rect class="cls-2" x="125.52" y="30.1" width="4.95" height="27.37" rx="1.48" ry="1.48"/>
  <rect class="cls-1" x="102.38" y="31.66" width="7.36" height="29.89" rx="2.17" ry="2.17" transform="translate(-8.45 29.04) rotate(-15)"/>
  <rect class="cls-2" x="103.6" y="32.98" width="4.95" height="27.37" rx="1.48" ry="1.48" transform="translate(-8.46 29.04) rotate(-15)"/>
  <rect class="cls-1" x="81.93" y="40.13" width="7.36" height="29.89" rx="2.17" ry="2.17" transform="translate(-16.07 50.18) rotate(-30)"/>
  <rect class="cls-2" x="83.16" y="41.45" width="4.95" height="27.37" rx="1.48" ry="1.48" transform="translate(-16.09 50.21) rotate(-30)"/>
  <rect class="cls-1" x="64.37" y="53.61" width="7.36" height="29.89" rx="2.17" ry="2.17" transform="translate(-28.54 68.2) rotate(-45)"/>
  <rect class="cls-2" x="65.62" y="54.91" width="4.95" height="27.37" rx="1.48" ry="1.48" transform="translate(-28.56 68.24) rotate(-45)"/>
  <rect class="cls-1" x="50.9" y="71.17" width="7.36" height="29.89" rx="2.17" ry="2.17" transform="translate(-47.28 90.32) rotate(-60)"/>
  <rect class="cls-2" x="52.16" y="72.46" width="4.95" height="27.37" rx="1.48" ry="1.48" transform="translate(-47.28 90.38) rotate(-60)"/>
  <rect class="cls-1" x="42.43" y="91.61" width="7.36" height="29.89" rx="2.17" ry="2.17" transform="translate(-68.75 123.52) rotate(-75)"/>
  <rect class="cls-1" x="39.54" y="113.56" width="7.36" height="29.89" rx="2.17" ry="2.17" transform="translate(-85.28 171.72) rotate(-90)"/>
  <rect class="cls-1" x="42.43" y="135.5" width="7.36" height="29.89" rx="2.17" ry="2.17" transform="translate(-87.27 233.92) rotate(-105)"/>
  <rect class="cls-1" x="50.9" y="155.94" width="7.36" height="29.89" rx="2.17" ry="2.17" transform="translate(-66.13 303.6) rotate(-120)"/>
  <rect class="cls-1" x="64.37" y="173.5" width="7.36" height="29.89" rx="2.17" ry="2.17" transform="translate(-17.08 369.82) rotate(-135)"/>
  <rect class="cls-1" x="81.93" y="186.98" width="7.36" height="29.89" rx="2.17" ry="2.17" transform="translate(58.79 419.6) rotate(-150)"/>
  <rect class="cls-1" x="102.38" y="195.45" width="7.36" height="29.89" rx="2.17" ry="2.17" transform="translate(154.05 441.06) rotate(-165)"/>
  <rect class="cls-1" x="124.32" y="198.33" width="7.36" height="29.89" rx="2.17" ry="2.17" transform="translate(256 426.56) rotate(-180)"/>
  <rect class="cls-1" x="146.26" y="195.45" width="7.36" height="29.89" rx="2.17" ry="2.17" transform="translate(349.23 374.81) rotate(165)"/>
  <rect class="cls-1" x="166.71" y="186.98" width="7.36" height="29.89" rx="2.17" ry="2.17" transform="translate(418.91 291.6) rotate(150)"/>
  <rect class="cls-1" x="184.27" y="173.5" width="7.36" height="29.89" rx="2.17" ry="2.17" transform="translate(454.1 188.8) rotate(135)"/>
  <rect class="cls-1" x="197.74" y="155.94" width="7.36" height="29.89" rx="2.17" ry="2.17" transform="translate(450.13 81.9) rotate(120)"/>
  <rect class="cls-1" x="206.21" y="135.5" width="7.36" height="29.89" rx="2.17" ry="2.17" transform="translate(409.53 -13.36) rotate(105)"/>
  <rect class="cls-1" x="209.1" y="113.56" width="7.36" height="29.89" rx="2.17" ry="2.17" transform="translate(341.28 -84.28) rotate(90)"/>
  <rect class="cls-1" x="206.21" y="91.61" width="7.36" height="29.89" rx="2.17" ry="2.17" transform="translate(258.49 -123.76) rotate(75)"/>
  <rect class="cls-1" x="197.74" y="71.17" width="7.36" height="29.89" rx="2.17" ry="2.17" transform="translate(175.28 -131.38) rotate(60)"/>
  <rect class="cls-1" x="184.27" y="53.61" width="7.36" height="29.89" rx="2.17" ry="2.17" transform="translate(103.52 -112.82) rotate(45)"/>
  <rect class="cls-1" x="166.71" y="40.13" width="7.36" height="29.89" rx="2.17" ry="2.17" transform="translate(50.37 -77.82) rotate(30)"/>
  <rect class="cls-1" x="146.26" y="31.66" width="7.36" height="29.89" rx="2.17" ry="2.17" transform="translate(17.17 -37.22) rotate(15)"/>
</svg>