<?xml version="1.0" encoding="UTF-8"?>
<svg id="cloth" xmlns="http://www.w3.org/2000/svg" viewBox="0 0 266 266">
  <defs>
    <style>
      .cls-1 {
        fill: #e0ecf1;
      }
    </style>
  </defs>
  <path class="cls-1" d="M217.38,141.41c-1.08-.75-26.38-12.15-28.73-15.52-12.55-2.64-11.06-2.97-20.31-7.93,7.76-4.95,19.92-10.4,21.14-16.02.99-4.57-5.22-42.37-11.89-54-6.03-8.26-29.76-30.14-34.68-32.78-3.01-1.62-9.9-2.17-9.9-2.17,0,0-6.89.55-9.9,2.17-4.92,2.64-28.65,24.52-34.68,32.78-6.67,11.63-12.88,49.43-11.89,54,1.22,5.61,13.38,11.06,21.14,16.02-9.25,4.95-7.76,5.28-20.31,7.93-2.35,3.37-27.66,14.78-28.73,15.52-1.74,4.31-23.46,72.41-33.2,103.76,9.45,3.77,17.32,6.27,22.51,6.29,17.39.05,29.5-8.54,63.63,0,2.02.76,6.1,1.25,11.25,1.54h30.85c12.62,2.69,28.22.29,33.42-2.87-.5-7.27-2.6-27.56-2.72-35.28l4.55,33.73c13.15-.82,14.18,4.97,34.34,6.94,6.52.64,27.66,3.3,38.98-5.02-8.66-28.08-33.01-104.51-34.86-109.09ZM141.73,125.06c-.09-1.39-.15-4.23-.15-5.55,1.73,0,10.31-1.09,12.75-1.11.12.98.5,4.42.58,5.4-2.6,0-8.51.82-13.17,1.25ZM143.93,110.5c2.28-.19,12.12-.96,14.66-1.07.17,2.86.98,15.87,1.61,19.97-.38.01-.8.07-1.18.07-.39-4.95-1.42-16.28-1.49-18.61-5.45.39-21.11,1.39-26.69,1.45-2.63.03-31.87-13.93-34.18-24.33.74-9.5,7.21-28.87,36.34-40.1,30.1,10.57,36.73,28.79,38.69,41.61-8.56,14.09-16.67,17.7-27.76,21Z"/>
</svg>