<?xml version="1.0" encoding="UTF-8"?>
<svg id="HeroicHealingPotion" xmlns="http://www.w3.org/2000/svg" viewBox="0 0 266 266">
  <defs>
    <style>
      .cls-1 {
        fill: none;
        stroke: #e1eef3;
        stroke-miterlimit: 10;
        stroke-width: 11px;
      }

      .cls-2 {
        fill: #e1eef3;
      }
    </style>
  </defs>
  <path class="cls-1" d="M143.65,74.41v23.43s41.66,6.67,48.34,17.67c15.54,25.58-14.53,112.54-14.53,118.85h-45.27"/>
  <polygon class="cls-2" points="162.75 50.73 156.64 74.78 132.2 74.41 132.2 31.64 149.76 31.64 146.71 50.73 162.75 50.73"/>
  <polygon class="cls-2" points="101.65 50.73 107.76 74.78 132.2 74.41 132.2 31.64 114.63 31.64 117.69 50.73 101.65 50.73"/>
  <path class="cls-2" d="M112.49,179.72c-12.55,0-21.14,12.55-19.16,19.62,5.94,16.71,8.77,23,8.77,23h64.73s1.13-1.01,4.44-16.86c2.09-10.03-47.22-25.75-58.79-25.76Z"/>
  <path class="cls-1" d="M122.35,74.41c0,8.45,0,23.43,0,23.43,0,0-41.66,6.67-48.34,17.67-15.54,25.58,14.53,112.54,14.53,118.85,12.18,0,45.27,0,45.27,0"/>
</svg>