<?xml version="1.0" encoding="UTF-8"?>
<svg id="Gold" xmlns="http://www.w3.org/2000/svg" viewBox="0 0 266 266">
  <defs>
    <style>
      .cls-1 {
        fill: none;
        stroke: #e2f0f5;
        stroke-miterlimit: 10;
        stroke-width: 9px;
      }

      .cls-2 {
        fill: #e2f0f5;
      }
    </style>
  </defs>
  <circle class="cls-1" cx="133" cy="133" r="120"/>
  <path class="cls-2" d="M133,21c-61.86,0-112,50.14-112,112s50.14,112,112,112,112-50.14,112-112S194.86,21,133,21ZM195.5,148.62h-3.91c-2.61,0-4.69.78-6.25,2.34s-2.34,3.65-2.34,6.25v39.06c-1.05-.51-2.09-1.04-3.12-1.56h-6.25c-1.56.53-3.12,1.31-4.69,2.34-2.61,1.56-7.81,3.12-15.62,4.69s-14.06,2.34-18.75,2.34c-15.63,0-29.69-5.72-42.19-17.19-12.5-11.45-18.75-27.86-18.75-49.22s6.25-39.84,18.75-52.34c12.5-11.98,26.56-17.97,42.19-17.97,7.81,0,15.36.78,22.66,2.34,7.29,1.56,11.45,2.34,12.5,2.34,1.56,0,3.12-.51,4.69-1.56,1.56-.51,2.86-1.56,3.91-3.12l6.25,35.16-4.69,1.56c-3.12-11.45-8.59-19.53-16.41-24.22-7.3-4.69-16.93-7.03-28.91-7.03s-22.93,5.47-32.81,16.41c-9.38,10.42-14.06,26.56-14.06,48.44,0,20.31,5.2,35.42,15.62,45.31,10.94,10.42,22.39,15.62,34.38,15.62,5.72,0,12.76-1.29,21.09-3.91,7.81-2.6,11.72-5.98,11.72-10.16v-26.56c0-3.12-.78-5.47-2.34-7.03s-3.91-2.34-7.03-2.34h-4.69v-4.69h39.06v4.69Z"/>
</svg>