<?xml version="1.0" encoding="UTF-8"?>
<svg id="HeroicHealingPotion" xmlns="http://www.w3.org/2000/svg" viewBox="0 0 266 266">
  <defs>
    <style>
      .cls-1 {
        fill: none;
        stroke: #e1eef3;
        stroke-miterlimit: 10;
        stroke-width: 11px;
      }

      .cls-2 {
        fill: #e1eef3;
      }
    </style>
  </defs>
  <path class="cls-1" d="M143.65,74.41v23.43s41.66,6.67,48.34,17.67c15.54,25.58-14.53,112.54-14.53,118.85h-45.27"/>
  <polygon class="cls-2" points="162.75 50.73 156.64 74.78 132.2 74.41 132.2 31.64 149.76 31.64 146.71 50.73 162.75 50.73"/>
  <polygon class="cls-2" points="101.65 50.73 107.76 74.78 132.2 74.41 132.2 31.64 114.63 31.64 117.69 50.73 101.65 50.73"/>
  <path class="cls-2" d="M160.57,133c-15.74-2.61-73.65,13.37-75.3,29.88-1.12,14.53,14.06,59.47,14.06,59.47h66.91s11.51-42.96,14.81-58.81c2.09-10.03-12.16-29.16-20.48-30.54Z"/>
  <path class="cls-1" d="M122.35,74.41c0,8.45,0,23.43,0,23.43,0,0-41.66,6.67-48.34,17.67-15.54,25.58,14.53,112.54,14.53,118.85,12.18,0,45.27,0,45.27,0"/>
</svg>