<?xml version="1.0" encoding="UTF-8"?>
<svg id="Potion" xmlns="http://www.w3.org/2000/svg" viewBox="0 0 266 266">
  <defs>
    <style>
      .cls-1 {
        fill: none;
        stroke: #e1eef3;
        stroke-miterlimit: 10;
        stroke-width: 11px;
      }

      .cls-2 {
        fill: #e1eef3;
      }
    </style>
  </defs>
  <path id="HealingPortionOutline" class="cls-1" d="M143.65,74.41v23.43s41.66,6.67,48.34,17.67c15.54,25.58-14.53,112.54-14.53,118.85h-45.27"/>
  <path id="HealingPortionOutline-2" data-name="HealingPortionOutline" class="cls-1" d="M122.35,74.41c0,8.45,0,23.43,0,23.43,0,0-41.66,6.67-48.34,17.67-15.54,25.58,14.53,112.54,14.53,118.85,12.18,0,45.27,0,45.27,0"/>
  <polygon id="pod" class="cls-2" points="162.75 50.73 156.64 74.78 132.2 74.41 132.2 31.64 149.76 31.64 146.71 50.73 162.75 50.73"/>
  <polygon id="pod-2" data-name="pod" class="cls-2" points="101.65 50.73 107.76 74.78 132.2 74.41 132.2 31.64 114.63 31.64 117.69 50.73 101.65 50.73"/>
  <path class="cls-2" d="M183.47,137.01c-14.91.22-12.55-18.5-32.15-24.88-12.55,0-66.28.91-69.13,17.17-2.21,46.02,19.92,93.05,19.92,93.05h64.73s20.09-49.61,16.62-85.34ZM118.02,190.62c-3.5,0-6.33-2.83-6.33-6.33s2.83-6.33,6.33-6.33,6.33,2.83,6.33,6.33-2.83,6.33-6.33,6.33ZM141.3,175.3c-5.78,0-10.46-4.68-10.46-10.46s4.68-10.46,10.46-10.46,10.46,4.68,10.46,10.46-4.68,10.46-10.46,10.46Z"/>
</svg>