<?xml version="1.0" encoding="UTF-8"?>
<svg id="_レイヤー_21" data-name="レイヤー 21" xmlns="http://www.w3.org/2000/svg" viewBox="0 0 266 266">
  <defs>
    <style>
      .cls-1 {
        fill: #e0ecf1;
      }
    </style>
  </defs>
  <path class="cls-1" d="M234.04,21.13c-.39-2.45-3.71-5.61-4.34-8.68-13.67,2.93-30.77,5.51-42.15,14.23-3.27-2.81-8.99-6.8-13.15-8.52-.54.45-7.87,1.88-9.78,2.8-3.57-2-7.8-2.81-15.46-4.44C10.33,128.76,29.26,264.29,38.11,252.88c30.2-61.31,93.8-120.51,174.92-160.56.45-9.69-.91-40.5-5.72-51.02.16-.04,8.51-5.09,16.47-8.32.51-.65-.11-4.98.27-5.85,3.62-2.45,6.55-4.03,9.99-6ZM41.94,200.92c-.66,6.55,8.45-2.71,10.46-4.18-10.07,12.39-12.8,20.81-16.98,35.2,0-50.86,48.8-159.55,112.93-204.07,3.66,1.42,6.63,2.91,10.57,4.39C94.35,58.51,43.6,187.98,41.94,200.92Z"/>
</svg>