<?xml version="1.0" encoding="UTF-8"?>
<svg id="_レイヤー_19" data-name="レイヤー 19" xmlns="http://www.w3.org/2000/svg" viewBox="0 0 266 266">
  <defs>
    <style>
      .cls-1 {
        fill: #e0ecf1;
      }
    </style>
  </defs>
  <path class="cls-1" d="M166.57,84.9c13.05-12,34.52-42.52,36.42-61.47-31.15-19.16-55.55-4.24-95.78,3.16-6.55.13-33.68-6.53-38.73-5.89-8.15,1.02-34.51,9.05-32.42,15.37,3.17,12,6.74,24.63,25.68,50.73,31.3,15.43,58.73,10.52,104.83-1.89Z"/>
  <path class="cls-1" d="M168.88,89.95c20,19.38,43.57,43.15,58.52,101.04-10.02,37.89-27.37,61.47-102.27,60.95-81.5.14-102.55-22.04-106.34-54.03-.15-36.84,5.38-44.73,8.54-53.91,25.56-25.2,29.35-41.19,33.98-51.67,24,19.38,79.57,12.15,107.57-2.37Z"/>
  <path class="cls-1" d="M241.8,105.87c2.79,2.93,7-2.02,4.79-5.11-30.77-25.4-58.05-23.99-69.64-21.75-5.12,1.72-11.37,7.79-3.23,9.82,4.63,2.13,39.31-11.57,68.08,17.04Z"/>
  <path class="cls-1" d="M179.46,95.33c26.18-1.58,45.76,11.43,49.69,30.48.42,6.6,10.53,3.65,8.14-2.81-14.6-31.44-35.79-33.54-54.45-33.54-6.32.42-11.93,6.39-3.38,5.87Z"/>
</svg>