<?xml version="1.0" encoding="UTF-8"?>
<svg id="_レイヤー_17" data-name="レイヤー 17" xmlns="http://www.w3.org/2000/svg" viewBox="0 0 266 266">
  <defs>
    <style>
      .cls-1 {
        fill: none;
        stroke: #e1eef3;
        stroke-miterlimit: 10;
        stroke-width: 11px;
      }

      .cls-2 {
        fill: #e1eef3;
      }
    </style>
  </defs>
  <path class="cls-1" d="M89.61,86.73v23.43l48.34,17.67s-14.53,112.54-14.53,118.85h-45.27"/>
  <polygon class="cls-2" points="108.7 63.05 102.59 87.1 78.15 86.73 78.15 43.96 95.72 43.96 92.67 63.05 108.7 63.05"/>
  <polygon class="cls-2" points="47.61 63.05 53.72 87.1 78.15 86.73 78.15 43.96 60.59 43.96 63.64 63.05 47.61 63.05"/>
  <polygon class="cls-2" points="124.42 155.9 36.93 173.4 45.28 234.66 112.19 234.66 121.34 171.3 124.42 155.9"/>
  <path class="cls-1" d="M68.3,86.73v23.43s-48.34,17.67-48.34,17.67c0,0,14.53,112.54,14.53,118.85,12.18,0,45.27,0,45.27,0"/>
  <path class="cls-2" d="M173.45,19.32c-10.57,42.28-26.74,58.25-25.76,87.74,1.49,18.89,21.41,26.69,34.51,20.31-6.17,11.29-11.79,16.03-13.05,18.44.23.84,9.84,2.71,10.71,2.58,1.05-1.62,7.87-18.41,8.66-21.19,5.9,1.32,31.48,7.43,39.58-34.24,2.05-15.63-12.05-46.89-54.65-73.64ZM194.68,95.13c.41,4.05-.09,5.41-1.41,6.98,1.82,9.25-.06,19.07-8.07,23.85,8.67-8.57,5.68-22.36,5.68-22.36-3.87,1.37-22.05,1.49-30.55-11.89,7.93,7.51,25.08,13.05,31.63,8.3,1.68-2.43,1.97-6.08-.46-9.37-3.21,1.21-21.24-3.54-25.2-25.11,5.5,18.34,20.96,24.03,25.2,23.62,2.69-8.49,5-17.03-.73-21.98,1.17.25,1.5-20.81-12.59-37.98,15.52,15.63,14.48,32.61,14.95,36.17.83-3.8,4.02-6.77,9.37-10.68-5.9,5.62-8.4,8.1-8.76,13.43,2.31,1.98,6.88,3.58,10.81-.33-.88,1.4-6.07,6.17-9.93,1.71,3.25,10.73-.94,15.3-1.51,19.95,1.07,2.39,1.15,2.72,1.32,3.8,7.18.17,19.64-6.5,22.29-17.43,0,10.93-11.4,17.49-22.04,19.33Z"/>
  <path class="cls-2" d="M245.98,217.31c-1.43.74-10.32,12.85-26.18,2.71,10.26-8.41,24.89-12.89,11.67-37.55-10.33-16.73-44.7-18.5-79.49-44.48-14.53,65.61,4.25,82.51,16.29,90.81,21.58,15.32,44.68,7.07,47.13-3.51,2.39,1.2,16.29,11.45,28.18,1.54.6-.5,2.84-8.86,2.39-9.52ZM206.26,213.19c-1.39,3.71-9.36,11.45-26.75,9.58,12.33-.33,23.72-4.45,24.99-12.44-.53-2.91-1.68-5.23-5.72-5.83-1.42,3.12-29.94,8.81-38.75-7.49,11.34,13.87,33.64,8.46,36.36,5.17-4.11-7.9-8.22-13.98-15.77-13.43,1.01-.65-26.53,3.96-23.01-37.1,2.75,36.66,19.22,31.06,22.07,33.25-2.1-3.27-3.19-13.1-.06-23.23-.11,4.79-1.07,20.48,3.19,22.68,3.04-.23,8.37-4.62,10.9-12.55-.03,4.54-1.76,11.01-7.36,14.33,9.89,5.29,10.16,11.48,13.04,15.18,2.45.93,1.58.29,2.45.93,5.2-4.96,7.07-16.46,5.96-29.34,1.76,9.8,2.94,22.5-3.28,31.32,3.15,2.57,3.09,3.91,3.27,5.96,3.75,6.76,3.53,8.52,8.49,10.94-6.83,1.54-10.02-7.93-10.02-7.93Z"/>
</svg>