<?xml version="1.0" encoding="UTF-8"?>
<svg id="Stone2" xmlns="http://www.w3.org/2000/svg" viewBox="0 0 266 266">
  <defs>
    <style>
      .cls-1 {
        fill: #e2f0f5;
      }
    </style>
  </defs>
  <polyline class="cls-1" points="116.13 170.72 106.9 158.92 126.72 137.3 145 148.81 143.83 168.78"/>
  <polygon class="cls-1" points="91.95 138.54 74.26 140.01 85.35 116.15 96.4 119.65 91.95 138.54"/>
  <path class="cls-1" d="M113.61,173.74l-10.49-14.82-25.46,2.83s-1.09,30.57-.66,31.5l15.47,50.65,16.18-24.77"/>
  <polygon class="cls-1" points="187.98 119.28 147.69 146.56 129.07 133 173.89 26.08 179.79 31.19 187.98 119.28"/>
  <path class="cls-1" d="M103.84,110.6l39.22-61.49,27.74-23.03-45.25,104.17s-13.16-10.99-21.72-19.64Z"/>
  <path class="cls-1" d="M147.86,170.12l1.1-21.44s28.58-19.78,35.72-22.46l5.73,2.08-18.28,99.31-13.6,1.8c2.87-12.64,4.98-24.95,6.67-37.8.46-3.49-6.79-13.99-6.67-17.5"/>
  <polygon class="cls-1" points="144.58 197.95 133.5 248.35 154.55 237.68 162.22 191.53 144.58 197.95"/>
  <polyline class="cls-1" points="162.55 189.96 143.39 196.9 130.32 182.9 144.83 172.97 155.85 177.2"/>
  <polygon class="cls-1" points="101.86 156.11 78.66 160.4 74.26 141.63 92.12 140.01 101.86 156.11"/>
  <path class="cls-1" d="M125.12,134.67l-19.87,22.27-11.56-18.1s2.23-13.6,4.21-18.56c2.56-1.32,3.24-1.7,4.41-2.43.97-.6,2.77.51,3.63,1.26l19.18,15.56Z"/>
  <polygon class="cls-1" points="130.11 184.93 125.63 219.29 131.6 248.35 141.37 198.15 130.11 184.93"/>
  <polygon class="cls-1" points="116.34 177.82 111.85 212.17 117.83 241.23 127.6 191.03 116.34 177.82"/>
  <polyline class="cls-1" points="128.31 182.04 127.43 188.64 117.4 174.98 120.04 172.32 143.5 172.32"/>
</svg>