<?xml version="1.0" encoding="UTF-8"?>
<svg id="_レイヤー_15" data-name="レイヤー 15" xmlns="http://www.w3.org/2000/svg" viewBox="0 0 266 266">
  <defs>
    <style>
      .cls-1 {
        fill: #e2f0f5;
      }
    </style>
  </defs>
  <polygon class="cls-1" points="87.22 255.36 41.78 226.74 41.01 130.15 74.74 154.06 87.22 255.36"/>
  <polygon class="cls-1" points="75.49 149.23 41.78 126.05 52.86 111.07 90.21 127.42 75.49 149.23"/>
  <path class="cls-1" d="M131.23,235.22l-38.3-103.99-14.45,21.26,12.3,104.38,28.14-3.54s12.72-17.18,12.29-18.11Z"/>
  <polygon class="cls-1" points="144.41 226.23 134.64 231.95 108.47 158.49 152.63 103.16 169.05 117.68 144.41 226.23"/>
  <path class="cls-1" d="M153.31,207.28l18.53-89.1,53.15-6.85-39.25,105.49-28.82,1.43s-1.22-4.7-3.61-10.97Z"/>
  <path class="cls-1" d="M201.28,67.39l23.71,41.09-53.56,6.95-15.73-14.84,19.89-24.28s18.55-6.24,25.69-8.92Z"/>
  <path class="cls-1" d="M106.83,154.06c-5.38-12.13-12.79-27.62-12.79-27.62l-29.18-13.19,18.18-72.23,28.77,23.07,11.42,68.47s-15.48,19.99-16.39,21.52Z"/>
  <polygon class="cls-1" points="117.15 63.09 126.96 128.78 162.37 84.16 150.67 20.03 117.15 63.09"/>
  <polygon class="cls-1" points="114.19 59.82 84.94 37.37 126.19 9.12 147.64 17.35 114.19 59.82"/>
</svg>