<?xml version="1.0" encoding="UTF-8"?>
<svg id="_レイヤー_16" data-name="レイヤー 16" xmlns="http://www.w3.org/2000/svg" viewBox="0 0 266 266">
  <defs>
    <style>
      .cls-1 {
        fill: #e2f0f5;
      }
    </style>
  </defs>
  <rect class="cls-1" x="201.11" y="184.24" width="17.12" height="51.32" transform="translate(-87.01 209.74) rotate(-45)"/>
  <rect class="cls-1" x="124.08" y="171.72" width="116.12" height="21.31" transform="translate(-75.61 182.21) rotate(-45)"/>
  <rect class="cls-1" x="226.59" y="226.82" width="18.44" height="18.44" transform="translate(-97.84 235.88) rotate(-45)"/>
  <rect class="cls-1" x="47.54" y="184.24" width="17.12" height="51.32" transform="translate(164.85 21.81) rotate(45)"/>
  <rect class="cls-1" x="25.56" y="171.72" width="116.12" height="21.31" transform="translate(153.45 -5.71) rotate(45)"/>
  <path class="cls-1" d="M248.62,49.68L109,189.3l-32.29-32.29L216.32,17.38l29.06,3.23s5.25,26.93,3.23,29.06Z"/>
  <rect class="cls-1" x="20.74" y="226.82" width="18.44" height="18.44" transform="translate(175.68 47.95) rotate(45)"/>
  <path class="cls-1" d="M49.44,17.29l82.41,82.5-31.98,32.05L19.09,50.26l1.3-29.64s23.59-2.77,29.06-3.32Z"/>
  <polygon class="cls-1" points="189.07 157 156.77 189.3 134.2 166.73 166.56 134.5 189.07 157"/>
</svg>