<?xml version="1.0" encoding="UTF-8"?>
<svg id="_レイヤー_4" data-name="レイヤー 4" xmlns="http://www.w3.org/2000/svg" viewBox="0 0 256 257">
  <defs>
    <style>
      .cls-1 {
        fill: none;
        stroke: #cee8f6;
        stroke-miterlimit: 10;
        stroke-width: 8px;
      }
    </style>
  </defs>
  <polygon class="cls-1" points="169.46 16.83 107.16 10.33 107.16 70.51 133.71 66.23 169.46 16.83"/>
  <polygon class="cls-1" points="227.19 62.52 180.6 20.65 145.22 69.33 169.22 81.48 227.19 62.52"/>
  <polygon class="cls-1" points="247.02 133.42 233.94 72.16 176.71 90.76 188.98 114.69 247.02 133.42"/>
  <polygon class="cls-1" points="221.4 202.44 246.82 145.19 189.59 126.6 185.46 153.17 221.4 202.44"/>
  <polygon class="cls-1" points="160.1 243.22 214.32 211.85 178.95 163.16 159.98 182.23 160.1 243.22"/>
  <polygon class="cls-1" points="86.54 240.17 148.84 246.67 148.84 186.49 122.29 190.77 86.54 240.17"/>
  <polygon class="cls-1" points="28.81 194.48 75.4 236.35 110.78 187.67 86.78 175.52 28.81 194.48"/>
  <polygon class="cls-1" points="8.98 123.58 22.06 184.84 79.29 166.24 67.02 142.31 8.98 123.58"/>
  <polygon class="cls-1" points="34.6 54.56 9.18 111.81 66.41 130.4 70.54 103.83 34.6 54.56"/>
  <polygon class="cls-1" points="95.9 13.78 41.68 45.15 77.05 93.84 96.02 74.77 95.9 13.78"/>
</svg>