<?xml version="1.0" encoding="UTF-8"?>
<svg id="MP" xmlns="http://www.w3.org/2000/svg" viewBox="0 0 256 257">
  <defs>
    <style>
      .cls-1, .cls-2 {
        fill: #e60012;
      }

      .cls-1, .cls-3 {
        stroke: #e60012;
        stroke-miterlimit: 10;
      }

      .cls-3 {
        fill: none;
        stroke-width: 11px;
      }
    </style>
  </defs>
  <path class="cls-3" d="M143,56.5v16l57,33s-25,137.74-25,146h-47"/>
  <path class="cls-3" d="M113,56.99c0,11.06,0,15.51,0,15.51l-57,33s25,137.74,25,146c15.95,0,47,0,47,0"/>
  <polygon class="cls-1" points="168 25.5 160 56.99 128 56.5 128 .5 151 .5 147 25.5 168 25.5"/>
  <polygon class="cls-1" points="88 25.5 96 56.99 128 56.5 128 .5 105 .5 109 25.5 88 25.5"/>
  <path class="cls-2" d="M154.72,142.72c-13.62,4.63-29.02,23.01-43.56,25.36-7.18,1.16-33.04-4.91-33.04-4.91l13.88,74.62h72l14.37-89.91s-19.63-6.53-23.65-5.16Z"/>
</svg>