<?xml version="1.0" encoding="UTF-8"?>
<svg id="AGI" xmlns="http://www.w3.org/2000/svg" viewBox="0 0 256 257">
  <defs>
    <style>
      .cls-1 {
        fill: #e3f1f6;
      }
    </style>
  </defs>
  <path class="cls-1" d="M249.8,157.29c3.26,4.41,1.65,39.2,1.5,44.38-.06,2.04.11,2.04-2.04,2.04h-104.11c-3.25,0-6.24-1.78-7.78-4.65l-68.92-127.99c21.32-38.61,47.49-48.43,47.49-48.43,0,0,19.57-19.26,20.41-18.31l53.51,54.87c1.12,1.26.88,3.22-.5,4.18l-18.72,13c-1.2.83-1.8,1.15-2.29,2.52-5.86,16.64,9.25,39.12,17.61,57.96,0,0,58.37,13.02,63.85,20.43Z"/>
  <path class="cls-1" d="M253.25,210.97h0c0,2.5-.91,4.38-4.5,4.56h-107.72c-5.7.07-10.95-3.07-13.59-8.12L59.31,81.31c-1.09-2.05-.45-6.36,1.36-7.81h0c2.35-1.87,5.4-1.94,6.83.7l67.8,125.23c1.96,3.69,5.81,6,9.99,5.98l103.38.99c3.16.19,4.58,2.04,4.58,4.56Z"/>
  <path class="cls-1" d="M96.43,166.87H30.14c-4.11,0-7.45-3.34-7.45-7.45,0-.04,0-.07,0-.11,0-4.11,3.34-7.44,7.45-7.44h57.53c.39,0,.71.28.98.69q5.29,8.19,7.59,11.82c.64,1.01,1.86,2.49.18,2.49Z"/>
  <path class="cls-1" d="M76.7,144.36H10.42c-4.11,0-7.45-3.34-7.45-7.45,0-.04,0-.07,0-.11,0-4.11,3.34-7.44,7.45-7.44h57.53c.39,0,.71.28.98.69q5.29,8.19,7.59,11.82c.64,1.01,1.86,2.49.18,2.49Z"/>
</svg>