<?xml version="1.0" encoding="UTF-8"?>
<svg id="AGI" xmlns="http://www.w3.org/2000/svg" viewBox="0 0 266 266">
  <defs>
    <style>
      .cls-1 {
        fill: #e3f1f6;
      }
    </style>
  </defs>
  <path class="cls-1" d="M73.87,74.45c21.32-38.61,47.19-47.31,47.19-47.31,0,0,17.23-16.28,18.97-17.97.64-.52,1.47-.61,2.13.1l52.82,54.43c1.12,1.26.88,3.22-.5,4.18l-17.27,16.74c-14.62,31.31,5.94,48.39,13.87,56.75,8.92,6.99,44.3,9.96,57.01,20.53,12.06,10.73,8.52,39.1,8.33,44.28-.06,1.66-.87,2.02-2.04,2.04h-104.11c-3.25,0-6.24-1.78-7.78-4.65l-68.46-127.32c-.25-.41-.6-1.07-.17-1.8Z"/>
  <path class="cls-1" d="M258.25,215.47h0c0,2.5-.91,4.38-4.5,4.56h-107.72c-5.7.07-10.95-3.07-13.59-8.12l-68.13-126.1c-1.09-2.05-.45-6.36,1.36-7.81h0c2.35-1.87,5.4-1.94,6.83.7l67.8,125.23c1.96,3.69,5.81,6,9.99,5.98l103.38.99c3.16.19,4.58,2.04,4.58,4.56Z"/>
  <path class="cls-1" d="M100.22,184.1H33.93c-4.11,0-7.45-4-7.45-8.94,0-.04,0-.08,0-.13,0-4.93,3.34-8.93,7.45-8.93h57.53c.39,0,.71.33.98.83q5.29,9.82,7.59,14.18c.64,1.21,1.86,2.99.18,2.99Z"/>
  <path class="cls-1" d="M81.7,150.36H15.42c-4.11,0-7.45-4-7.45-8.94,0-.04,0-.08,0-.13,0-4.93,3.34-8.93,7.45-8.93h57.53c.39,0,.71.33.98.83q5.29,9.82,7.59,14.18c.64,1.21,1.86,2.99.18,2.99Z"/>
</svg>