<?xml version="1.0" encoding="UTF-8"?>
<svg id="_レイヤー_13" data-name="レイヤー 13" xmlns="http://www.w3.org/2000/svg" viewBox="0 0 266 266">
  <defs>
    <style>
      .cls-1 {
        fill: #dee8ed;
      }
    </style>
  </defs>
  <path class="cls-1" d="M177.95,171.78c2.52.36,18.78-2.07,23.04-11.55-1.53,6.75-11.9,12.98-21.48,13.46.39,15.51-2.81,27.53-2.81,27.53,0,0,10.86,24.01,14.97,34.11,8,4.67,33.98-2.25,40.19-7.3.44-5.35-6.13-27.93-7.66-31.02,21.63-9.26,31.27-41.56,25.36-48.83,9.44-13.56-.73-32.33-9.44-36.31,6.54-15.25,2.66-29.77-11.38-36.07-2.09-28.41-31.72-39.77-45.52-37.76-3.21-6.73-43.97-26.7-73.2-5.25-28.03-11.96-43.3,5.93-53.49,22.02-7.96-.64-18.39,5.2-23.4,11.42-9.63,11.97-11.66,26.03-10.45,38.13-16.95,19.61-13.56,49.38,19.94,63.55,11.14,4.71,26.94,8.4,32.55,9.67-4.73-6.98-8-27.95-3.83-38.71-30.21-13.39-14.63-37.59-10.56-43.19-7.65,20.69-4.97,28.4,1.77,35.76,11.21,11.01,21.84,4.28,26.79,1.99-3.83,4.09-8.78,5.21-15.31,6.56-4.6,10.35.75,32.84,4.95,38.04,3.8,3,40.56,13.87,48.76,8.27,1,10.8,29.37,14.8,45.88,15.08,3.59-7.94,4.9-14.6,3.97-28.07-17.95-.97-22.2-9.92-18.17-27.84-16.21-.68-31.06-5.75-35.74-12.04,13.11,9.23,29.61,10.82,37.34,10.3,7.63-3.31,16.07-7.14,19.94-12.74-2.59-5.82-.7-13.19,1.35-18.68-31.29-1.8-33.39-19.83-30-40.81-4.21-3.6-17.39-9.71-29.6-4.8,4.83-3.2,14.27-5.75,30.24,3.78,2.1-3.11,7.64-7.87,14.18-8.86-6.93,2.91-11.68,6.14-13.42,10.3-4.2,15.15-.63,38.05,29.82,38.25,5.83-1.06,15.07-7.33,19.16-11.02-1.92,4-15.65,12.19-18.52,13.39-4.18,8.33-3.01,14.68-.53,18.37,3.3,6.02,13.73,6.09,19.62,5.92-6.2,2.13-15.19.23-21.79-4.17-6.4,7.92-15.96,10.47-20.31,12.52-4.07,12.08-.83,26.21,16.78,26.57Z"/>
</svg>