<?xml version="1.0" encoding="UTF-8"?>
<svg id="INT" xmlns="http://www.w3.org/2000/svg" viewBox="0 0 266 266">
  <defs>
    <style>
      .cls-1 {
        fill: #dee8ed;
      }
    </style>
  </defs>
  <path class="cls-1" d="M176.06,174.78c2.52.36,18.78-2.07,23.04-11.55-1.53,6.75-11.88,14.25-21.46,14.73,2.52,22.68-2.83,26.26-2.83,26.26,0,0,10.86,24.01,14.97,34.11,8,4.67,33.98-2.25,40.19-7.3.44-5.35-6.13-27.93-7.66-31.02,21.63-9.26,31.27-41.56,25.36-48.83,9.44-13.56-.73-32.33-9.44-36.31,6.54-15.25,2.66-29.77-11.38-36.07-2.09-28.41-31.72-39.77-45.52-37.76-3.21-6.73-43.97-26.7-73.2-5.25-28.03-11.96-43.3,5.93-53.49,22.02-7.96-.64-18.39,5.2-23.4,11.42-9.63,11.97-11.66,26.03-10.45,38.13-16.95,19.61-13.56,49.38,19.94,63.55,11.14,4.71,26.94,8.4,32.55,9.67-4.73-6.98-10.31-27.36-6.14-38.12-30.21-13.39-12.32-38.18-8.24-43.78-7.65,20.69-6.43,30.07,1.77,35.76,11.09,7.69,21.84,4.28,26.79,1.99-3.83,4.09-7.19,6.33-13.72,7.68-4.6,10.35,3.06,31.46,7.27,36.66,3.8,3,30.91,12.16,44.86,8.53,5.26,10.23,29.37,14.8,45.88,15.08,3.59-7.94,3.64-13.28,2.7-26.75-17.95-.97-24.24-11.45-20.21-29.37-16.21-.68-27.74-5.55-32.42-11.84,13.11,9.23,29.71,9.14,37.44,8.61,7.63-3.31,14.4-6.46,18.28-12.05-2.59-5.82-.92-12.32,1.13-17.81-31.29-1.8-33.8-19.17-30.41-40.16-4.21-3.6-15.2-10.24-27.4-5.33,4.83-3.2,14.51-7.95,30.49,1.58,2.1-3.11,7.4-5.66,13.94-6.66-6.93,2.91-11.68,6.14-13.42,10.3-4.2,15.15-.63,38.05,29.82,38.25,5.83-1.06,15.07-7.33,19.16-11.02-1.92,4-15.65,12.19-18.52,13.39-4.18,8.33-3.01,14.68-.53,18.37,3.3,6.02,13.73,6.09,19.62,5.92-6.2,2.13-15.19.23-21.79-4.17-6.4,7.92-15.96,10.47-20.31,12.52-4.07,12.08-.83,26.21,16.78,26.57Z"/>
</svg>