<?xml version="1.0" encoding="UTF-8"?>
<svg id="PER" xmlns="http://www.w3.org/2000/svg" viewBox="0 0 266 266">
  <defs>
    <style>
      .cls-1 {
        stroke-width: 12px;
      }

      .cls-1, .cls-2, .cls-3 {
        fill: none;
        stroke: #dfeaef;
        stroke-miterlimit: 10;
      }

      .cls-2 {
        stroke-width: 7px;
      }

      .cls-4 {
        fill: #dfeaef;
      }

      .cls-3 {
        stroke-width: 9px;
      }
    </style>
  </defs>
  <path class="cls-4" d="M175.79,168.31l19.16,35.01s-53.99,32.37-54.83,32.37l-15.59-47.3-36.92,8.7c-2.19.84-4.97.22-5.52-2.42l-7.81-21.67c-.26-.67-3.92-1.43-2.86-4.03l6.93-2.95-7.14,3.04c-.71.3-1.53-.02-1.85-.72l-4.98-11.11-7.27-8.3,11.74-9.73-6.34-25.16c-5.38-69.85,72.56-86.53,104.71-68.26,34.01,19.33,41.01,43.57,37.43,73.1-2.69,22.25-12.48,33.77-28.87,49.43Z"/>
  <path class="cls-1" d="M239.55,38.91s12.27,12.52,12.27,52.87-12.27,52.87-12.27,52.87"/>
  <path class="cls-3" d="M227.68,51.18s7.5,9.85,7.5,41.61-7.5,41.61-7.5,41.61"/>
  <path class="cls-2" d="M216.56,59.53s5.75,8.16,5.75,34.47-5.75,34.47-5.75,34.47"/>
  <path class="cls-1" d="M26.45,41.13s-12.27,12.52-12.27,52.87,12.27,52.87,12.27,52.87"/>
  <path class="cls-3" d="M38.32,53.4s-7.5,9.85-7.5,41.61c0,32.57,7.5,41.61,7.5,41.61"/>
  <path class="cls-2" d="M49.44,61.75s-5.75,8.16-5.75,34.47,5.75,34.47,5.75,34.47"/>
</svg>