<?xml version="1.0" encoding="UTF-8"?>
<svg id="VIT" xmlns="http://www.w3.org/2000/svg" viewBox="0 0 266 266">
  <defs>
    <style>
      .cls-1 {
        fill: none;
      }

      .cls-2 {
        fill: #dfeaef;
      }
    </style>
  </defs>
  <path class="cls-1" d="M133,123.15c-4.53-1.95-6.02-2.58-8.02-3.28,3.22-12.55,3.8-13.95,7.94-29.18-4.73,8.67-9.46,17.73-16.87,29.93,6.13,4.21,11.65,8.31,16.95,11.34,3.38,2.37,4.94,3.28,7.62,5.18-3.23,11.25-5.1,18.56-7.62,28.41,4.72-9.24,12.18-23.86,17.04-35.58-3.79-1.16-10.85-4.19-17.04-6.85v.04Z"/>
  <path class="cls-2" d="M190,20c-47.93,0-57,40-57,40,0,0-9.07-40-57-40-26.42,0-59.82,21.83-60,65-.33,79.6,117,152,117,152,0,0,117.33-72.4,117-152-.18-43.17-33.58-65-60-65ZM133,168.17c2.53-9.86,4.39-19.79,7.62-31.04-2.68-1.9-20.17-12.31-26.29-16.52,7.42-12.19,13.86-24.69,18.59-33.36-3.21,15.09-4.06,18.12-6.04,30.22,3.75,1.91,21.09,10.64,25.1,12.49-4.85,11.72-14.27,28.96-18.98,38.2Z"/>
</svg>